/* XPM */
static char * odinycoin16_xpm[] = {
"16 16 175 2",
"  	c None",
". 	c #76B0FE",
"+ 	c #83B7FE",
"@ 	c #84B8FE",
"# 	c #4F99FE",
"$ 	c #5BA3FE",
"% 	c #90C0FE",
"& 	c #C3DCFE",
"* 	c #C6DEFE",
"= 	c #94C3FE",
"- 	c #5EA4FE",
"; 	c #4F97FE",
"> 	c #3188FE",
", 	c #2B84FE",
"' 	c #84B2FB",
") 	c #CCDEFA",
"! 	c #EAF1FA",
"~ 	c #EBF1FB",
"{ 	c #CEDFFA",
"] 	c #84B4FC",
"^ 	c #2B85FE",
"/ 	c #2F84FE",
"( 	c #3A93FE",
"_ 	c #277BFD",
": 	c #A2B8F4",
"< 	c #E7EBF3",
"[ 	c #E7EDF7",
"} 	c #D8E5FA",
"| 	c #D4E2FA",
"1 	c #DEE6F6",
"2 	c #E2E7F1",
"3 	c #9CB5F6",
"4 	c #2379FD",
"5 	c #358CFE",
"6 	c #56A8FE",
"7 	c #1A80FE",
"8 	c #98AFF2",
"9 	c #E5E9EF",
"0 	c #BBD1F7",
"a 	c #9DC1F8",
"b 	c #B8CEF4",
"c 	c #B4CCF4",
"d 	c #8AB5F9",
"e 	c #9ABCF8",
"f 	c #D7DEEC",
"g 	c #93ADF4",
"h 	c #177BFE",
"i 	c #52A3FE",
"j 	c #409EFE",
"k 	c #4D88F8",
"l 	c #D8DDE8",
"m 	c #B5CCF4",
"n 	c #9DBDF4",
"o 	c #E3E7EF",
"p 	c #DEE4F2",
"q 	c #DBE3F3",
"r 	c #DFE5F0",
"s 	c #7EA9F9",
"t 	c #91B1F5",
"u 	c #D1D8E6",
"v 	c #5188FA",
"w 	c #3997FE",
"x 	c #3298FE",
"y 	c #88A5EF",
"z 	c #D8DEE9",
"A 	c #70A4F9",
"B 	c #C2D1F6",
"C 	c #5292FD",
"D 	c #4C90FD",
"E 	c #93B3F9",
"F 	c #448DFD",
"G 	c #408BFC",
"H 	c #C9D2E6",
"I 	c #90AAF1",
"J 	c #2D92FE",
"K 	c #369BFE",
"L 	c #A1B5E9",
"M 	c #C2CEEB",
"N 	c #6C9CF7",
"O 	c #E3E6EE",
"P 	c #75A0FB",
"Q 	c #1E7FFE",
"R 	c #2080FE",
"S 	c #1C80FE",
"T 	c #2581FD",
"U 	c #B4C2E9",
"V 	c #A9BBEC",
"W 	c #3294FE",
"X 	c #61B6FE",
"Y 	c #3EA1FE",
"Z 	c #A2B8E9",
"` 	c #BAC7E9",
" .	c #5B8DF8",
"..	c #E0E4EE",
"+.	c #779EFB",
"@.	c #0F77FE",
"#.	c #1F7AFD",
"$.	c #0D77FE",
"%.	c #1B78FD",
"&.	c #B1BFE7",
"*.	c #ABBEEB",
"=.	c #3A9CFE",
"-.	c #64BAFE",
";.	c #46ABFE",
">.	c #8CB1EF",
",.	c #CAD2E4",
"'.	c #4783FB",
").	c #C1CDF1",
"!.	c #C8D3F3",
"~.	c #6693F9",
"{.	c #6C95F5",
"].	c #B5C4F0",
"^.	c #5A8DFC",
"/.	c #367CFB",
"(.	c #C6CDE1",
"_.	c #98B7F0",
":.	c #41A6FE",
"<.	c #5CB8FE",
"[.	c #5BA5F9",
"}.	c #CCD4E2",
"|.	c #8FA9F2",
"1.	c #5789FB",
"2.	c #C7D2F2",
"3.	c #E2E5EE",
"4.	c #D6DDF0",
"5.	c #7298FA",
"6.	c #8AA3ED",
"7.	c #D1D7E0",
"8.	c #68A8F8",
"9.	c #54B3FE",
"0.	c #7BC8FE",
"a.	c #4AAEFE",
"b.	c #92B9F0",
"c.	c #CED5E3",
"d.	c #87A4F3",
"e.	c #4280FC",
"f.	c #6D96FA",
"g.	c #759AF9",
"h.	c #4D85FB",
"i.	c #839FEF",
"j.	c #D0D5DF",
"k.	c #A5C1ED",
"l.	c #49AAFE",
"m.	c #70C3FE",
"n.	c #71C4FE",
"o.	c #4DADFD",
"p.	c #99BEF0",
"q.	c #D0D7E2",
"r.	c #C0CAE5",
"s.	c #A5B7EB",
"t.	c #A4B6EA",
"u.	c #BEC8E3",
"v.	c #D4D9E0",
"w.	c #ACC6EB",
"x.	c #53ACFC",
"y.	c #67BFFE",
"z.	c #77C6FE",
"A.	c #52B3FE",
"B.	c #72B3F8",
"C.	c #A7C5ED",
"D.	c #BECFE7",
"E.	c #C1D0E7",
"F.	c #AFC8EB",
"G.	c #81B8F5",
"H.	c #53B1FD",
"I.	c #6FC3FE",
"J.	c #90D1FE",
"K.	c #5BB9FE",
"L.	c #57B5FD",
"M.	c #5AB8FE",
"N.	c #6CC1FE",
"O.	c #89CFFE",
"P.	c #A2DAFE",
"Q.	c #99D6FE",
"R.	c #9ED9FE",
"            . + @ .             ",
"        # $ % & * = - ;         ",
"      > , ' ) ! ~ { ] ^ /       ",
"    ( _ : < [ } | 1 2 3 4 5     ",
"  6 7 8 9 0 a b c d e f g h i   ",
"  j k l m n o p q r s t u v w   ",
"  x y z A f B C D E F G H I J   ",
"  K L M N O P Q Q R S T U V W X ",
"  Y Z `  ...+.@.@.#.$.%.&.*.=.-.",
"  ;.>.,.'.).!.~.{.].^./.(._.:.  ",
"  <.[.}.|.1.2.3.O 4.5.6.7.8.9.  ",
"  0.a.b.c.d.e.f.g.h.i.j.k.l.m.  ",
"    n.o.p.q.r.s.t.u.v.w.x.y.    ",
"      z.A.B.C.D.E.F.G.H.I.      ",
"        J.n.K.L.L.M.N.O.        ",
"            P.Q.Q.R.            "};
