/* XPM */
static char * odinycoin32_xpm[] = {
"32 32 617 2",
"  	c None",
". 	c #75AFFE",
"+ 	c #6FACFE",
"@ 	c #6BABFE",
"# 	c #71AEFE",
"$ 	c #78B2FE",
"% 	c #78B3FE",
"& 	c #72AFFE",
"* 	c #6CABFE",
"= 	c #75AEFE",
"- 	c #65A6FE",
"; 	c #4E9CFE",
"> 	c #58A2FE",
", 	c #72B0FE",
"' 	c #8EC0FE",
") 	c #A8CFFE",
"! 	c #BBD9FE",
"~ 	c #BDDAFE",
"{ 	c #ACD1FE",
"] 	c #92C3FE",
"^ 	c #76B2FE",
"/ 	c #5BA3FE",
"( 	c #4E9AFE",
"_ 	c #66A5FE",
": 	c #72ADFF",
"< 	c #3B8FFE",
"[ 	c #2F8CFE",
"} 	c #4A9BFE",
"| 	c #6BADFE",
"1 	c #8CBFFE",
"2 	c #CAE1FE",
"3 	c #E2EEFE",
"4 	c #E5F0FE",
"5 	c #CFE4FE",
"6 	c #B1D4FE",
"7 	c #90C2FE",
"8 	c #6FB0FE",
"9 	c #4E9DFE",
"0 	c #318CFE",
"a 	c #368AFE",
"b 	c #69A6FF",
"c 	c #5BA4FE",
"d 	c #2284FE",
"e 	c #117BFE",
"f 	c #2E8CFE",
"g 	c #4D9DFE",
"h 	c #6FAEFE",
"i 	c #93C0FD",
"j 	c #B7D4FB",
"k 	c #D3E4FA",
"l 	c #E2EDFB",
"m 	c #E3EEFB",
"n 	c #D6E6FB",
"o 	c #BAD6FC",
"p 	c #96C2FD",
"q 	c #71B0FE",
"r 	c #509FFE",
"s 	c #318EFE",
"t 	c #147CFE",
"u 	c #1C7EFE",
"v 	c #5A9FFE",
"w 	c #63AAFE",
"x 	c #1D85FE",
"y 	c #0275FE",
"z 	c #0978FE",
"A 	c #2787FE",
"B 	c #65A1FB",
"C 	c #B4CCF6",
"D 	c #E2EAF6",
"E 	c #F4F6F8",
"F 	c #F9F9FA",
"G 	c #FAFAFA",
"H 	c #E3EBF7",
"I 	c #B4CDF8",
"J 	c #64A2FC",
"K 	c #2888FE",
"L 	c #0C79FE",
"M 	c #0273FE",
"N 	c #167DFE",
"O 	c #57A0FE",
"P 	c #6AB1FE",
"Q 	c #238CFE",
"R 	c #0277FE",
"S 	c #0374FE",
"T 	c #207AFD",
"U 	c #88AAF4",
"V 	c #DCE3F1",
"W 	c #F3F4F5",
"X 	c #F6F7F7",
"Y 	c #F7F7F7",
"Z 	c #F6F6F8",
"` 	c #F5F6F8",
" .	c #F4F5F7",
"..	c #F4F5F6",
"+.	c #F4F4F5",
"@.	c #F0F2F3",
"#.	c #D9E1F2",
"$.	c #82A8F8",
"%.	c #1B79FE",
"&.	c #1C84FE",
"*.	c #61A9FE",
"=.	c #3799FE",
"-.	c #057DFE",
";.	c #267AFC",
">.	c #A0B6EF",
",.	c #E8EAEF",
"'.	c #F1F2F2",
").	c #F1F2F3",
"!.	c #E7EDF5",
"~.	c #D0E0F9",
"{.	c #BDD6FB",
"].	c #B1D0FC",
"^.	c #ADCEFC",
"/.	c #AFCEFB",
"(.	c #BDD4F9",
"_.	c #D6E1F4",
":.	c #E9ECEF",
"<.	c #ECEDED",
"[.	c #E1E6ED",
"}.	c #96B3F5",
"|.	c #1F79FD",
"1.	c #0373FE",
"2.	c #0377FE",
"3.	c #2D90FE",
"4.	c #79B7FE",
"5.	c #55A9FE",
"6.	c #168AFE",
"7.	c #0276FE",
"8.	c #1877FD",
"9.	c #98B0ED",
"0.	c #E8EAED",
"a.	c #EFF0F0",
"b.	c #EAEDF1",
"c.	c #C4D7F7",
"d.	c #92BEFD",
"e.	c #80B6FE",
"f.	c #80B5FC",
"g.	c #85B6FA",
"h.	c #81B4FA",
"i.	c #74AEFC",
"j.	c #6AA9FE",
"k.	c #6EAAFD",
"l.	c #98BDF9",
"m.	c #D4DEEF",
"n.	c #E7E9EA",
"o.	c #E0E4EA",
"p.	c #8FAEF4",
"q.	c #1576FD",
"r.	c #0F81FE",
"s.	c #4BA2FE",
"t.	c #7ABEFE",
"u.	c #349BFE",
"v.	c #0681FE",
"w.	c #0674FE",
"x.	c #6F97F1",
"y.	c #DFE2E9",
"z.	c #EDEDEE",
"A.	c #E6EAF0",
"B.	c #A9C8F9",
"C.	c #75B0FE",
"D.	c #81B2F9",
"E.	c #B3C9EE",
"F.	c #D4DDEC",
"G.	c #E0E5EC",
"H.	c #D3DDEE",
"I.	c #ABC5F2",
"J.	c #68A4FB",
"K.	c #6CA6FB",
"L.	c #C8D5EE",
"M.	c #E5E6E8",
"N.	c #D9DEE8",
"O.	c #6E98F7",
"P.	c #0673FE",
"Q.	c #0479FE",
"R.	c #2C93FE",
"S.	c #70B7FE",
"T.	c #61B2FE",
"U.	c #2593FE",
"V.	c #037CFE",
"W.	c #2E7AFA",
"X.	c #BFCAE3",
"Y.	c #EAEBEC",
"Z.	c #E7EAED",
"`.	c #A8C6F7",
" +	c #65A7FE",
".+	c #8BB4F4",
"++	c #D5DDE9",
"@+	c #ECEDEF",
"#+	c #EFF0F1",
"$+	c #EEEFF0",
"%+	c #EBEDEE",
"&+	c #D3DDEF",
"*+	c #80ACF8",
"=+	c #398FFE",
"-+	c #649EFA",
";+	c #D1D9E9",
">+	c #E2E4E5",
",+	c #BFCCE8",
"'+	c #317CFC",
")+	c #1D8BFE",
"!+	c #57ABFE",
"~+	c #47A8FE",
"{+	c #1C8EFE",
"]+	c #7096ED",
"^+	c #DFE1E4",
"/+	c #E8E9EA",
"(+	c #C3D4F1",
"_+	c #5CA2FD",
":+	c #73A8F7",
"<+	c #D6DCE8",
"[+	c #EEEFEF",
"}+	c #EEF0F1",
"|+	c #E1E7F3",
"1+	c #C4D4F5",
"2+	c #C0D1F6",
"3+	c #DBE3F3",
"4+	c #EDEFF0",
"5+	c #BCCEF3",
"6+	c #398CFD",
"7+	c #2B89FE",
"8+	c #8EB0F2",
"9+	c #DEE1E4",
"0+	c #DBDFE2",
"a+	c #7B9FF3",
"b+	c #0574FE",
"c+	c #1586FE",
"d+	c #3EA1FE",
"e+	c #74C0FE",
"f+	c #3EA4FE",
"g+	c #188BFE",
"h+	c #1479FD",
"i+	c #A5B6E2",
"j+	c #E4E6E6",
"k+	c #E2E5EA",
"l+	c #81AFF9",
"m+	c #4797FD",
"n+	c #B4C6E9",
"o+	c #EEEFF1",
"p+	c #C6D5F5",
"q+	c #649CFC",
"r+	c #378AFE",
"s+	c #3489FE",
"t+	c #5595FD",
"u+	c #B8CCF6",
"v+	c #CBD9F4",
"w+	c #5996FC",
"x+	c #2786FE",
"y+	c #2586FE",
"z+	c #448EFB",
"A+	c #CBD3E5",
"B+	c #E0E1E2",
"C+	c #B0C1E9",
"D+	c #1B77FD",
"E+	c #1284FE",
"F+	c #379DFE",
"G+	c #6FBAFE",
"H+	c #6BBDFE",
"I+	c #3CA3FE",
"J+	c #198BFE",
"K+	c #2D7EFA",
"L+	c #C2CBDD",
"M+	c #E4E5E6",
"N+	c #CBD7EC",
"O+	c #4895FD",
"P+	c #5999F8",
"Q+	c #DADFE7",
"R+	c #EEEEEF",
"S+	c #D7E0F4",
"T+	c #5594FD",
"U+	c #2785FE",
"V+	c #2685FE",
"W+	c #3C8BFD",
"X+	c #4B91FD",
"Y+	c #2484FE",
"Z+	c #2183FE",
"`+	c #2684FD",
" @	c #A6BCEA",
".@	c #DFE1E2",
"+@	c #CBD3E2",
"@@	c #3A80FB",
"#@	c #1384FE",
"$@	c #359CFE",
"%@	c #68B8FE",
"&@	c #1E8DFE",
"*@	c #4587F6",
"=@	c #CFD3DB",
"-@	c #ADC4F1",
";@	c #2F8AFE",
">@	c #77A2F1",
",@	c #E6E8EB",
"'@	c #EDEEF0",
")@	c #A1BDF8",
"!@	c #2583FE",
"~@	c #2282FE",
"{@	c #2182FE",
"]@	c #1F82FE",
"^@	c #1E82FE",
"/@	c #1D81FE",
"(@	c #86A8EE",
"_@	c #DEE0E2",
":@	c #D6DAE0",
"<@	c #5B8EF7",
"[@	c #1785FE",
"}@	c #369CFE",
"|@	c #63B7FE",
"1@	c #6BBEFE",
"2@	c #3DA4FE",
"3@	c #2590FE",
"4@	c #588FF3",
"5@	c #D3D6DB",
"6@	c #96B4F3",
"7@	c #84A6EF",
"8@	c #E8E9EC",
"9@	c #EBEDF0",
"0@	c #7BA6FB",
"a@	c #1A7EFE",
"b@	c #1A7DFE",
"c@	c #197DFE",
"d@	c #197EFE",
"e@	c #187EFE",
"f@	c #177EFE",
"g@	c #177DFE",
"h@	c #729CF0",
"i@	c #DBDDE0",
"j@	c #D8DBDF",
"k@	c #6E98F5",
"l@	c #1F89FE",
"m@	c #379EFE",
"n@	c #59B5FE",
"o@	c #6CC0FE",
"p@	c #40A7FE",
"q@	c #2D95FE",
"r@	c #5993F3",
"s@	c #DBDEE0",
"t@	c #8CABF3",
"u@	c #0E76FE",
"v@	c #759BF0",
"w@	c #EBECF0",
"x@	c #7DA4FA",
"y@	c #0E77FE",
"z@	c #0F77FE",
"A@	c #0D77FE",
"B@	c #0C77FE",
"C@	c #0B77FE",
"D@	c #0A76FE",
"E@	c #6F96EF",
"F@	c #DADCDF",
"G@	c #709CF5",
"H@	c #278EFE",
"I@	c #3AA1FE",
"J@	c #5BB7FE",
"K@	c #6FC2FE",
"L@	c #43AAFE",
"M@	c #339AFE",
"N@	c #4C94F6",
"O@	c #CED4DB",
"P@	c #DCDEE0",
"Q@	c #98B2F0",
"R@	c #0E75FE",
"S@	c #5089F7",
"T@	c #DEE2E9",
"U@	c #ECEEEF",
"V@	c #A8BFF7",
"W@	c #1779FE",
"X@	c #1178FE",
"Y@	c #1477FD",
"Z@	c #0976FE",
"`@	c #0875FE",
" #	c #0974FE",
".#	c #82A0EA",
"+#	c #DBDDDF",
"@#	c #D6DADF",
"##	c #649BF7",
"$#	c #2D94FE",
"%#	c #3EA5FE",
"&#	c #66BCFE",
"*#	c #77C7FE",
"=#	c #48AFFE",
"-#	c #389FFE",
";#	c #3E94FB",
">#	c #C2CDDD",
",#	c #DCDEDF",
"'#	c #B3C3EB",
")#	c #1C77FE",
"!#	c #2378FD",
"~#	c #BBC9ED",
"{#	c #ECEDEE",
"]#	c #DDE4F2",
"^#	c #6495FB",
"/#	c #1177FE",
"(#	c #1A78FD",
"_#	c #759BEE",
":#	c #8DADF4",
"<#	c #217AFE",
"[#	c #0774FE",
"}#	c #1575FD",
"|#	c #A3B4E3",
"1#	c #DDDEE0",
"2#	c #CFD6E0",
"3#	c #4C96FA",
"4#	c #6EC1FE",
"5#	c #84CDFE",
"6#	c #4FB5FE",
"7#	c #3597FD",
"8#	c #A7BEE5",
"9#	c #DBDDDE",
"0#	c #D0D6E4",
"a#	c #4985FB",
"b#	c #6A95F7",
"c#	c #DEE3ED",
"d#	c #EDEEEF",
"e#	c #D8E0F1",
"f#	c #90ADF3",
"g#	c #5A8EF6",
"h#	c #5E8FF3",
"i#	c #9BB0E8",
"j#	c #DEE1E8",
"k#	c #95B2F7",
"l#	c #1876FE",
"m#	c #0473FE",
"n#	c #3D7FF8",
"o#	c #C6CDDC",
"p#	c #BBCAE6",
"q#	c #3995FD",
"r#	c #39A0FE",
"s#	c #49B0FE",
"t#	c #76C6FE",
"u#	c #5DBDFE",
"v#	c #44ABFE",
"w#	c #76A8F1",
"x#	c #D5D9DD",
"y#	c #95AFF1",
"z#	c #1073FE",
"A#	c #1374FE",
"B#	c #88A8F7",
"C#	c #E0E5EE",
"D#	c #EDEEEE",
"E#	c #E5E7EC",
"F#	c #E5E7EB",
"G#	c #EAECED",
"H#	c #C1D0F1",
"I#	c #2E7CFD",
"J#	c #0E73FD",
"K#	c #89A3E7",
"L#	c #DADCDE",
"M#	c #DADDDE",
"N#	c #93B6EF",
"O#	c #3499FE",
"P#	c #53B7FE",
"Q#	c #7BC9FE",
"R#	c #4CB3FE",
"S#	c #429CFC",
"T#	c #B8C8E3",
"U#	c #CFD6E4",
"V#	c #5F8FF8",
"W#	c #0571FE",
"X#	c #1574FE",
"Y#	c #799FF9",
"Z#	c #CCD7F0",
"`#	c #E7E9EE",
" $	c #EBECEE",
".$	c #EAEBEE",
"+$	c #DFE4EE",
"@$	c #ADC2F4",
"#$	c #4784FC",
"$$	c #0772FE",
"%$	c #5989F2",
"&$	c #CACFDB",
"*$	c #DDDEDF",
"=$	c #CBD4E1",
"-$	c #58A0FA",
";$	c #47AFFE",
">$	c #6CC2FE",
",$	c #97D5FF",
"'$	c #46AEFE",
")$	c #3BA1FE",
"!$	c #6FA9F5",
"~$	c #CFD6DF",
"{$	c #C3CEE7",
"]$	c #578BF9",
"^$	c #0A71FE",
"/$	c #0771FE",
"($	c #357DFD",
"_$	c #769DF9",
":$	c #9CB5F6",
"<$	c #A2B8F5",
"[$	c #8CAAF7",
"}$	c #568CFB",
"|$	c #1B74FE",
"1$	c #0A72FE",
"2$	c #5386F4",
"3$	c #BDC5DC",
"4$	c #D8DCDF",
"5$	c #95B9EF",
"6$	c #3A9EFE",
"7$	c #42AAFE",
"8$	c #53B8FE",
"9$	c #89CFFE",
"0$	c #7FCCFE",
"a$	c #52B7FE",
"b$	c #43ABFE",
"c$	c #3DA1FD",
"d$	c #8EB6F0",
"e$	c #D5DADF",
"f$	c #DCDFE0",
"g$	c #CAD2E4",
"h$	c #7EA1F2",
"i$	c #2D7BFC",
"j$	c #0E74FE",
"k$	c #0873FE",
"l$	c #0B73FE",
"m$	c #0C73FE",
"n$	c #0A73FE",
"o$	c #0D74FE",
"p$	c #2A7AFB",
"q$	c #769AEC",
"r$	c #C4CBDC",
"s$	c #B3C8E8",
"t$	c #49A1FC",
"u$	c #70C5FE",
"v$	c #71C6FE",
"w$	c #4EB5FE",
"x$	c #41A2FD",
"y$	c #94BAEF",
"z$	c #D4D9DF",
"A$	c #D9DCE1",
"B$	c #BCC8E5",
"C$	c #89A7ED",
"D$	c #5D8FF4",
"E$	c #4786F7",
"F$	c #4686F7",
"G$	c #5B8EF3",
"H$	c #85A2E9",
"I$	c #B5C1DE",
"J$	c #D6D9DD",
"K$	c #DDDFE0",
"L$	c #B9CCE6",
"M$	c #58A6FA",
"N$	c #3FA7FE",
"O$	c #4AB1FE",
"P$	c #62C0FE",
"Q$	c #94D5FE",
"R$	c #9DD8FE",
"S$	c #6AC4FE",
"T$	c #42A5FD",
"U$	c #84B5F3",
"V$	c #C9D4E2",
"W$	c #D7DADF",
"X$	c #D1D6DE",
"Y$	c #D1D5DE",
"Z$	c #D5D9DE",
"`$	c #A9C4EB",
" %	c #55A7FB",
".%	c #41A8FE",
"+%	c #4AB2FE",
"@%	c #5EBEFE",
"#%	c #8FD2FE",
"$%	c #6DC5FE",
"%%	c #51B7FE",
"&%	c #47AEFE",
"*%	c #42A7FE",
"=%	c #5EAAFA",
"-%	c #A0C1ED",
";%	c #D7DBDF",
">%	c #DADDDF",
",%	c #D9DCDF",
"'%	c #D2D9E0",
")%	c #B7CCE7",
"!%	c #7EB4F5",
"~%	c #47A7FD",
"{%	c #44ACFE",
"]%	c #4DB4FE",
"^%	c #8FD3FE",
"/%	c #A2DAFE",
"(%	c #7ACAFE",
"_%	c #59BCFE",
":%	c #4DB3FE",
"<%	c #46ADFE",
"[%	c #44A9FE",
"}%	c #55AAFB",
"|%	c #7BB4F5",
"1%	c #99BFEF",
"2%	c #A9C5EC",
"3%	c #ACC6EB",
"4%	c #A2C3ED",
"5%	c #8CBAF2",
"6%	c #67AFF8",
"7%	c #49A9FD",
"8%	c #54B9FE",
"9%	c #6EC5FE",
"0%	c #98D6FE",
"a%	c #ADDFFE",
"b%	c #90D3FE",
"c%	c #58BBFE",
"d%	c #45ACFE",
"e%	c #46ABFE",
"f%	c #46ACFE",
"g%	c #48B0FE",
"h%	c #4CB4FE",
"i%	c #66C2FE",
"j%	c #85CFFE",
"k%	c #A3DBFE",
"l%	c #AADEFE",
"m%	c #91D4FE",
"n%	c #79CAFE",
"o%	c #5BBDFE",
"p%	c #56BAFE",
"q%	c #53B9FE",
"r%	c #55B9FE",
"s%	c #72C7FE",
"t%	c #8AD1FE",
"u%	c #B3E1FE",
"v%	c #A9DDFE",
"w%	c #9BD8FE",
"x%	c #8CD2FE",
"y%	c #8BD2FE",
"z%	c #98D7FE",
"                                                                ",
"                      . + @ # $ % & * + =                       ",
"                  - ; > , ' ) ! ~ { ] ^ / ( _                   ",
"              : < [ } | 1 { 2 3 4 5 6 7 8 9 0 a b               ",
"            c d e f g h i j k l m n o p q r s t u v             ",
"          w x y z A B C D E F G G F E H I J K L M N O           ",
"        P Q R S T U V W X Y Z ` E  ...+.@.#.$.%.S M &.*.        ",
"        =.-.S ;.>.,.'.).!.~.{.].^./.(._.:.<.[.}.|.1.2.3.4.      ",
"      5.6.7.8.9.0.a.b.c.d.e.f.g.h.i.j.k.l.m.n.o.p.q.M r.s.      ",
"    t.u.v.w.x.y.z.A.B.C.D.E.F.G.G.H.I.J.( K.L.M.N.O.P.Q.R.S.    ",
"    T.U.V.W.X.Y.Z.`. +.+++@+a.#+#+$+%+&+*+=+-+;+>+,+'+y )+!+    ",
"    ~+{+Q.]+^+/+(+_+:+<+[+}+|+1+2+3+4+@+5+6+7+8+9+0+a+b+c+d+    ",
"  e+f+g+h+i+j+k+l+m+n+<.o+p+q+r+s+t+u+v+w+x+y+z+A+B+C+D+E+F+G+  ",
"  H+I+J+K+L+M+N+O+P+Q+R+S+T+U+U+U+V+W+X+Y+d Z+`+ @.@+@@@#@$@%@  ",
"  H+I+&@*@=@>+-@;@>@,@'@)@!@~@~@~@~@~@{@]@^@/@/@(@_@:@<@[@}@|@  ",
"  1@2@3@4@5@_@6@{@7@8@9@0@a@b@c@c@b@b@d@d@e@f@g@h@i@j@k@l@m@n@  ",
"  o@p@q@r@5@s@t@u@v@,@w@x@y@y@z@y@y@y@A@B@C@D@D@E@F@j@G@H@I@J@  ",
"  K@L@M@N@O@P@Q@R@S@T@U@V@W@A@A@A@A@X@Y@D@Z@`@ #.#+#@###$#%#&#  ",
"  *#=#-#;#>#,#'#)#!#~#{#]#^#/#B@B@(#_#:#<#`@[#}#|#1#2#3#M@L@4#  ",
"  5#6#%#7#8#9#0#a#P.b#c#d#e#f#g#h#i#j#A.k#l#m#n#o#,#p#q#r#s#t#  ",
"    u#v#F+w#x#s@y#z#A#B#C#D#@+E#F#{#[+G#H#I#J#K#L#M#N#O#p@P#    ",
"    Q#R#%#S#T#+#U#V#W#X#Y#Z#`# $%+.$+$@$#$$$%$&$*$=$-$I@;$>$    ",
"    ,$u#'$)$!$~$,#{$]$^$/$($_$:$<$[$}$|$1$2$3$,#4$5$6$7$8$9$    ",
"      0$a$b$c$d$e$f$g$h$i$j$k$l$m$n$o$p$q$r$*$M#s$t$p@R#u$      ",
"        v$w$7$x$y$z$,#A$B$C$D$E$F$G$H$I$J$K$L#L$M$N$O$P$Q$      ",
"        R$S$w$v#T$U$V$M#*$P@W$X$Y$Z$+#K$,#e$`$ %.%+%@%#%        ",
"          R$$%%%&%*%=%-%V$;%>%,#,#+#,%'%)%!%~%{%]%P$^%          ",
"            /%(%_%:%<%[%}%|%1%2%3%4%5%6%7%v#O$8%9%0%            ",
"              a%b%9%c%w$O$'$d%e%e%f%<%g%h%8%i%j%k%              ",
"                  l%m%n%i%o%p%q%q%r%_%P$s%t%k%                  ",
"                      u%v%w%m%x%y%^%z%k%a%                      ",
"                                                                "};
